<svg xmlns="http://www.w3.org/2000/svg" xmlns:xlink="http://www.w3.org/1999/xlink" width="500" zoomAndPan="magnify" viewBox="0 0 375 374.999991" height="500" preserveAspectRatio="xMidYMid meet" version="1.0"><defs><clipPath id="307989590e"><path d="M 68.90625 20.53125 L 306.09375 20.53125 L 306.09375 355 L 68.90625 355 Z M 68.90625 20.53125 " clip-rule="nonzero"/></clipPath><clipPath id="2c07ce161c"><path d="M 86.15625 20.53125 L 288.84375 20.53125 C 293.417969 20.53125 297.804688 22.347656 301.042969 25.582031 C 304.277344 28.816406 306.09375 33.207031 306.09375 37.78125 L 306.09375 337.21875 C 306.09375 341.792969 304.277344 346.183594 301.042969 349.417969 C 297.804688 352.652344 293.417969 354.46875 288.84375 354.46875 L 86.15625 354.46875 C 81.582031 354.46875 77.195312 352.652344 73.957031 349.417969 C 70.722656 346.183594 68.90625 341.792969 68.90625 337.21875 L 68.90625 37.78125 C 68.90625 33.207031 70.722656 28.816406 73.957031 25.582031 C 77.195312 22.347656 81.582031 20.53125 86.15625 20.53125 Z M 86.15625 20.53125 " clip-rule="nonzero"/></clipPath><clipPath id="4e688a51c9"><path d="M 68.90625 20.539062 L 305.996094 20.539062 L 305.996094 353.867188 L 68.90625 353.867188 Z M 68.90625 20.539062 " clip-rule="nonzero"/></clipPath><clipPath id="29495b8bc2"><path d="M 86.15625 20.539062 L 288.824219 20.539062 C 293.398438 20.539062 297.785156 22.355469 301.019531 25.589844 C 304.253906 28.824219 306.070312 33.210938 306.070312 37.789062 L 306.070312 337.195312 C 306.070312 341.769531 304.253906 346.160156 301.019531 349.394531 C 297.785156 352.628906 293.398438 354.445312 288.824219 354.445312 L 86.15625 354.445312 C 81.582031 354.445312 77.191406 352.628906 73.957031 349.394531 C 70.722656 346.160156 68.90625 341.769531 68.90625 337.195312 L 68.90625 37.789062 C 68.90625 33.210938 70.722656 28.824219 73.957031 25.589844 C 77.191406 22.355469 81.582031 20.539062 86.15625 20.539062 Z M 86.15625 20.539062 " clip-rule="nonzero"/></clipPath><clipPath id="28f0807590"><path d="M 121.421875 121.421875 L 252.878906 121.421875 L 252.878906 252.878906 L 121.421875 252.878906 Z M 121.421875 121.421875 " clip-rule="nonzero"/></clipPath><clipPath id="27a7c1f878"><path d="M 87.6875 41.570312 L 122.898438 41.570312 L 122.898438 76.78125 L 87.6875 76.78125 Z M 87.6875 41.570312 " clip-rule="nonzero"/></clipPath><clipPath id="2567414bd5"><path d="M 253.324219 299.472656 L 288.535156 299.472656 L 288.535156 334.683594 L 253.324219 334.683594 Z M 253.324219 299.472656 " clip-rule="nonzero"/></clipPath></defs><g clip-path="url(#307989590e)"><g clip-path="url(#2c07ce161c)"><path fill="#d50000" d="M 68.90625 20.53125 L 306.09375 20.53125 L 306.09375 354.074219 L 68.90625 354.074219 Z M 68.90625 20.53125 " fill-opacity="1" fill-rule="nonzero"/></g></g><g clip-path="url(#4e688a51c9)"><g clip-path="url(#29495b8bc2)"><path stroke-linecap="butt" transform="matrix(2.347434, 0, 0, 2.347434, 68.906558, 20.538789)" fill="none" stroke-linejoin="miter" d="M 7.348318 0.000116522 L 93.684272 0.000116522 C 95.632876 0.000116522 97.501605 0.7739 98.879439 2.151734 C 100.257273 3.529569 101.031057 5.398298 101.031057 7.348565 L 101.031057 134.894741 C 101.031057 136.843345 100.257273 138.713738 98.879439 140.091572 C 97.501605 141.469407 95.632876 142.24319 93.684272 142.24319 L 7.348318 142.24319 C 5.399714 142.24319 3.529321 141.469407 2.151486 140.091572 C 0.773652 138.713738 -0.000131367 136.843345 -0.000131367 134.894741 L -0.000131367 7.348565 C -0.000131367 5.398298 0.773652 3.529569 2.151486 2.151734 C 3.529321 0.7739 5.399714 0.000116522 7.348318 0.000116522 Z M 7.348318 0.000116522 " stroke="#ffffff" stroke-width="2.555982" stroke-opacity="1" stroke-miterlimit="4"/></g></g><g clip-path="url(#28f0807590)"><path fill="#ffffff" d="M 187.496094 121.421875 C 171.867188 121.421875 159.179688 134.742188 159.179688 151.15625 C 159.316406 161.484375 164.644531 170.214844 170.191406 178.515625 C 164.007812 173.835938 157.136719 171.007812 149.738281 170.976562 C 134.109375 170.976562 121.421875 184.300781 121.421875 200.710938 C 121.421875 217.125 134.109375 230.445312 149.738281 230.445312 C 162.402344 230.234375 172.53125 221.375 182.484375 213.929688 C 180.703125 236.171875 177.078125 248.664062 156.03125 253.574219 L 218.964844 253.574219 C 197.917969 248.664062 194.292969 236.171875 192.511719 213.929688 C 202.351562 222.359375 212.667969 229.511719 225.257812 230.445312 C 240.886719 230.445312 253.574219 217.125 253.574219 200.710938 C 253.574219 184.300781 240.886719 170.976562 225.257812 170.976562 C 217.667969 170.976562 211.113281 174.46875 204.804688 178.515625 C 211.082031 170.296875 215.214844 161.433594 215.816406 151.15625 C 215.816406 134.742188 203.128906 121.421875 187.5 121.421875 Z M 187.496094 121.421875 " fill-opacity="1" fill-rule="nonzero"/></g><g clip-path="url(#27a7c1f878)"><path fill="#ffffff" d="M 105.164062 41.570312 C 101.027344 41.570312 97.671875 45.09375 97.671875 49.433594 C 97.710938 52.164062 99.117188 54.476562 100.585938 56.671875 C 98.949219 55.433594 97.132812 54.683594 95.175781 54.675781 C 91.042969 54.675781 87.6875 58.199219 87.6875 62.542969 C 87.6875 66.882812 91.042969 70.40625 95.175781 70.40625 C 98.527344 70.351562 101.203125 68.007812 103.835938 66.039062 C 103.367188 71.921875 102.40625 75.226562 96.839844 76.523438 L 113.484375 76.523438 C 107.917969 75.226562 106.960938 71.921875 106.488281 66.039062 C 109.09375 68.265625 111.820312 70.160156 115.152344 70.40625 C 119.285156 70.40625 122.640625 66.882812 122.640625 62.542969 C 122.640625 58.199219 119.285156 54.675781 115.152344 54.675781 C 113.144531 54.675781 111.410156 55.601562 109.742188 56.671875 C 111.402344 54.496094 112.496094 52.152344 112.652344 49.433594 C 112.652344 45.09375 109.296875 41.570312 105.164062 41.570312 Z M 105.164062 41.570312 " fill-opacity="1" fill-rule="nonzero"/></g><g clip-path="url(#2567414bd5)"><path fill="#ffffff" d="M 271.054688 334.683594 C 275.191406 334.683594 278.546875 331.160156 278.546875 326.816406 C 278.511719 324.085938 277.101562 321.777344 275.632812 319.582031 C 277.269531 320.816406 279.085938 321.566406 281.042969 321.574219 C 285.179688 321.574219 288.535156 318.050781 288.535156 313.710938 C 288.535156 309.367188 285.179688 305.84375 281.042969 305.84375 C 277.695312 305.902344 275.015625 308.246094 272.382812 310.214844 C 272.855469 304.328125 273.8125 301.027344 279.378906 299.726562 L 262.734375 299.726562 C 268.300781 301.027344 269.257812 304.328125 269.730469 310.214844 C 267.128906 307.984375 264.398438 306.09375 261.070312 305.84375 C 256.933594 305.84375 253.578125 309.367188 253.578125 313.710938 C 253.578125 318.050781 256.933594 321.574219 261.070312 321.574219 C 263.078125 321.574219 264.808594 320.652344 266.480469 319.582031 C 264.816406 321.753906 263.726562 324.097656 263.566406 326.816406 C 263.566406 331.160156 266.921875 334.683594 271.054688 334.683594 Z M 271.054688 334.683594 " fill-opacity="1" fill-rule="nonzero"/></g></svg>