<svg xmlns="http://www.w3.org/2000/svg" xmlns:xlink="http://www.w3.org/1999/xlink" width="500" zoomAndPan="magnify" viewBox="0 0 375 374.999991" height="500" preserveAspectRatio="xMidYMid meet" version="1.0"><defs><clipPath id="f1903e6b85"><path d="M 68.871094 20.480469 L 306.128906 20.480469 L 306.128906 355 L 68.871094 355 Z M 68.871094 20.480469 " clip-rule="nonzero"/></clipPath><clipPath id="223afe11e9"><path d="M 86.121094 20.480469 L 288.878906 20.480469 C 298.40625 20.480469 306.128906 28.203125 306.128906 37.730469 L 306.128906 337.269531 C 306.128906 346.796875 298.40625 354.519531 288.878906 354.519531 L 86.121094 354.519531 C 76.59375 354.519531 68.871094 346.796875 68.871094 337.269531 L 68.871094 37.730469 C 68.871094 28.203125 76.59375 20.480469 86.121094 20.480469 Z M 86.121094 20.480469 " clip-rule="nonzero"/></clipPath><clipPath id="202df3af9b"><path d="M 68.871094 20.488281 L 306.035156 20.488281 L 306.035156 353.917969 L 68.871094 353.917969 Z M 68.871094 20.488281 " clip-rule="nonzero"/></clipPath><clipPath id="cdf9d84e6c"><path d="M 86.117188 20.488281 L 288.859375 20.488281 C 298.382812 20.488281 306.105469 28.210938 306.105469 37.738281 L 306.105469 337.246094 C 306.105469 346.773438 298.382812 354.496094 288.859375 354.496094 L 86.117188 354.496094 C 76.59375 354.496094 68.871094 346.773438 68.871094 337.246094 L 68.871094 37.738281 C 68.871094 28.210938 76.59375 20.488281 86.117188 20.488281 Z M 86.117188 20.488281 " clip-rule="nonzero"/></clipPath><clipPath id="50347d342f"><path d="M 145.703125 122.851562 L 230.238281 122.851562 L 230.238281 254.347656 L 145.703125 254.347656 Z M 145.703125 122.851562 " clip-rule="nonzero"/></clipPath><clipPath id="ec1a45b977"><path d="M 87.65625 40.867188 L 113.484375 40.867188 L 113.484375 80.785156 L 87.65625 80.785156 Z M 87.65625 40.867188 " clip-rule="nonzero"/></clipPath><clipPath id="082fd08eb0"><path d="M 254.375 295.035156 L 282.550781 295.035156 L 282.550781 337.300781 L 254.375 337.300781 Z M 254.375 295.035156 " clip-rule="nonzero"/></clipPath></defs><g clip-path="url(#f1903e6b85)"><g clip-path="url(#223afe11e9)"><path fill="#d50000" d="M 68.871094 20.480469 L 306.128906 20.480469 L 306.128906 354.125 L 68.871094 354.125 Z M 68.871094 20.480469 " fill-opacity="1" fill-rule="nonzero"/></g></g><g clip-path="url(#202df3af9b)"><g clip-path="url(#cdf9d84e6c)"><path stroke-linecap="butt" transform="matrix(2.348148, -0.000000000000000291, 0.000000000000000291, 2.348148, 68.87053, 20.488114)" fill="none" stroke-linejoin="miter" d="M 7.344793 0.0000710498 L 93.686124 0.0000710498 C 97.741848 0.0000710498 101.030677 3.2889 101.030677 7.346287 L 101.030677 134.896964 C 101.030677 138.954351 97.741848 142.24318 93.686124 142.24318 L 7.344793 142.24318 C 3.289069 142.24318 0.000240263 138.954351 0.000240263 134.896964 L 0.000240263 7.346287 C 0.000240263 3.2889 3.289069 0.0000710498 7.344793 0.0000710498 Z M 7.344793 0.0000710498 " stroke="#ffffff" stroke-width="2.555206" stroke-opacity="1" stroke-miterlimit="4"/></g></g><g clip-path="url(#50347d342f)"><path fill="#ffffff" d="M 187.972656 122.851562 L 145.734375 188.601562 L 187.972656 254.347656 L 230.207031 188.601562 Z M 187.972656 122.851562 " fill-opacity="1" fill-rule="nonzero"/></g><g clip-path="url(#ec1a45b977)"><path fill="#ffffff" d="M 100.570312 40.867188 L 87.65625 60.828125 L 100.570312 80.785156 L 113.484375 60.828125 Z M 100.570312 40.867188 " fill-opacity="1" fill-rule="nonzero"/></g><g clip-path="url(#082fd08eb0)"><path fill="#ffffff" d="M 268.464844 295.035156 L 254.375 316.167969 L 268.464844 337.300781 L 282.550781 316.167969 Z M 268.464844 295.035156 " fill-opacity="1" fill-rule="nonzero"/></g></svg>