<svg xmlns="http://www.w3.org/2000/svg" xmlns:xlink="http://www.w3.org/1999/xlink" width="500" zoomAndPan="magnify" viewBox="0 0 375 374.999991" height="500" preserveAspectRatio="xMidYMid meet" version="1.0"><defs><clipPath id="5c7c2b4112"><path d="M 69.019531 20.691406 L 305.980469 20.691406 L 305.980469 354 L 69.019531 354 Z M 69.019531 20.691406 " clip-rule="nonzero"/></clipPath><clipPath id="75c581d791"><path d="M 86.269531 20.691406 L 288.730469 20.691406 C 293.304688 20.691406 297.691406 22.507812 300.925781 25.746094 C 304.160156 28.980469 305.980469 33.367188 305.980469 37.941406 L 305.980469 337.058594 C 305.980469 341.632812 304.160156 346.019531 300.925781 349.253906 C 297.691406 352.492188 293.304688 354.308594 288.730469 354.308594 L 86.269531 354.308594 C 81.695312 354.308594 77.308594 352.492188 74.074219 349.253906 C 70.839844 346.019531 69.019531 341.632812 69.019531 337.058594 L 69.019531 37.941406 C 69.019531 33.367188 70.839844 28.980469 74.074219 25.746094 C 77.308594 22.507812 81.695312 20.691406 86.269531 20.691406 Z M 86.269531 20.691406 " clip-rule="nonzero"/></clipPath><clipPath id="ad103ecc7f"><path d="M 69.019531 20.699219 L 305.882812 20.699219 L 305.882812 353.707031 L 69.019531 353.707031 Z M 69.019531 20.699219 " clip-rule="nonzero"/></clipPath><clipPath id="64307bd71d"><path d="M 86.269531 20.699219 L 288.707031 20.699219 C 293.28125 20.699219 297.667969 22.515625 300.90625 25.75 C 304.140625 28.988281 305.957031 33.375 305.957031 37.949219 L 305.957031 337.035156 C 305.957031 341.609375 304.140625 345.996094 300.90625 349.234375 C 297.667969 352.46875 293.28125 354.285156 288.707031 354.285156 L 86.269531 354.285156 C 81.695312 354.285156 77.308594 352.46875 74.074219 349.234375 C 70.839844 345.996094 69.019531 341.609375 69.019531 337.035156 L 69.019531 37.949219 C 69.019531 33.375 70.839844 28.988281 74.074219 25.75 C 77.308594 22.515625 81.695312 20.699219 86.269531 20.699219 Z M 86.269531 20.699219 " clip-rule="nonzero"/></clipPath><clipPath id="168f530634"><path d="M 90 33.609375 L 130 33.609375 L 130 71 L 90 71 Z M 90 33.609375 " clip-rule="nonzero"/></clipPath><clipPath id="ddfa8bd15a"><path d="M 243 304.441406 L 282 304.441406 L 282 339.621094 L 243 339.621094 Z M 243 304.441406 " clip-rule="nonzero"/></clipPath></defs><g clip-path="url(#5c7c2b4112)"><g clip-path="url(#75c581d791)"><path fill="#d50000" d="M 69.019531 20.691406 L 305.980469 20.691406 L 305.980469 353.914062 L 69.019531 353.914062 Z M 69.019531 20.691406 " fill-opacity="1" fill-rule="nonzero"/></g></g><g clip-path="url(#ad103ecc7f)"><g clip-path="url(#64307bd71d)"><path stroke-linecap="butt" transform="matrix(2.345171, 0.000000000000000009, -0.000000000000000009, 2.345171, 69.02089, 20.699804)" fill="none" stroke-linejoin="miter" d="M 7.35496 -0.00024976 L 93.675941 -0.00024976 C 95.626425 -0.00024976 97.496957 0.774281 98.877786 2.153444 C 100.25695 3.534273 101.03148 5.404806 101.03148 7.355289 L 101.03148 134.887943 C 101.03148 136.838427 100.25695 138.708959 98.877786 140.089788 C 97.496957 141.468952 95.626425 142.243482 93.675941 142.243482 L 7.35496 142.243482 C 5.404476 142.243482 3.533944 141.468952 2.15478 140.089788 C 0.775617 138.708959 -0.000579198 136.838427 -0.000579198 134.887943 L -0.000579198 7.355289 C -0.000579198 5.404806 0.775617 3.534273 2.15478 2.153444 C 3.533944 0.774281 5.404476 -0.00024976 7.35496 -0.00024976 Z M 7.35496 -0.00024976 " stroke="#ffffff" stroke-width="2.558448" stroke-opacity="1" stroke-miterlimit="4"/></g></g><path fill="#ffffff" d="M 245.542969 199.742188 C 260.648438 174.554688 261.765625 151.636719 248.570312 138.441406 C 246.570312 136.453125 244.375 134.722656 241.976562 133.242188 C 239.578125 131.761719 237.046875 130.570312 234.375 129.675781 C 231.707031 128.777344 228.96875 128.191406 226.164062 127.925781 C 223.359375 127.65625 220.5625 127.710938 217.769531 128.085938 C 214.910156 128.476562 212.121094 129.15625 209.398438 130.125 C 206.679688 131.089844 204.085938 132.324219 201.617188 133.824219 C 199.152344 135.324219 196.863281 137.0625 194.753906 139.035156 C 192.644531 141.003906 190.757812 143.171875 189.097656 145.53125 C 187.433594 143.171875 185.546875 141.003906 183.4375 139.03125 C 181.328125 137.0625 179.042969 135.324219 176.574219 133.824219 C 174.109375 132.324219 171.515625 131.089844 168.792969 130.125 C 166.074219 129.160156 163.28125 128.480469 160.421875 128.085938 C 157.628906 127.714844 154.832031 127.660156 152.027344 127.929688 C 149.222656 128.199219 146.488281 128.78125 143.816406 129.675781 C 141.148438 130.574219 138.613281 131.761719 136.214844 133.242188 C 133.820312 134.722656 131.621094 136.453125 129.621094 138.441406 C 113.203125 154.859375 121.023438 181.785156 132.710938 199.847656 C 139.207031 209.421875 146.488281 218.355469 154.558594 226.652344 C 162.625 234.949219 171.355469 242.476562 180.746094 249.238281 C 183.351562 251.234375 185.40625 252.796875 186.726562 253.976562 C 187.050781 254.261719 187.417969 254.484375 187.820312 254.636719 C 188.226562 254.789062 188.648438 254.867188 189.082031 254.867188 C 189.515625 254.867188 189.9375 254.789062 190.339844 254.636719 C 190.746094 254.484375 191.113281 254.261719 191.4375 253.976562 C 192.730469 252.828125 194.859375 251.171875 197.546875 249.066406 C 209.667969 239.601562 232.230469 221.972656 245.542969 199.742188 Z M 245.542969 199.742188 " fill-opacity="1" fill-rule="nonzero"/><g clip-path="url(#168f530634)"><path fill="#ffffff" d="M 126.460938 54.515625 C 130.785156 47.304688 131.105469 40.746094 127.328125 36.964844 C 126.757812 36.398438 126.128906 35.902344 125.441406 35.476562 C 124.753906 35.054688 124.03125 34.714844 123.265625 34.457031 C 122.5 34.199219 121.71875 34.03125 120.914062 33.957031 C 120.113281 33.878906 119.3125 33.894531 118.511719 34 C 116.855469 34.230469 115.316406 34.777344 113.886719 35.644531 C 112.460938 36.515625 111.265625 37.628906 110.300781 38.996094 C 109.339844 37.628906 108.144531 36.511719 106.71875 35.644531 C 105.289062 34.777344 103.75 34.230469 102.09375 34.003906 C 101.292969 33.894531 100.492188 33.878906 99.691406 33.957031 C 98.886719 34.035156 98.105469 34.199219 97.339844 34.457031 C 96.574219 34.714844 95.851562 35.054688 95.164062 35.480469 C 94.476562 35.902344 93.847656 36.398438 93.277344 36.964844 C 88.574219 41.667969 90.8125 49.375 94.160156 54.546875 C 97.910156 60.070312 102.492188 64.785156 107.910156 68.6875 C 108.65625 69.257812 109.246094 69.707031 109.625 70.042969 C 109.816406 70.210938 110.042969 70.296875 110.296875 70.296875 C 110.554688 70.296875 110.78125 70.210938 110.972656 70.042969 C 111.34375 69.714844 111.953125 69.238281 112.722656 68.636719 C 116.191406 65.925781 122.652344 60.878906 126.460938 54.515625 Z M 126.460938 54.515625 " fill-opacity="1" fill-rule="nonzero"/></g><g clip-path="url(#ddfa8bd15a)"><path fill="#ffffff" d="M 246.546875 319.503906 C 242.386719 326.441406 242.078125 332.757812 245.714844 336.390625 C 246.832031 337.5 248.132812 338.304688 249.625 338.804688 C 251.113281 339.304688 252.640625 339.453125 254.199219 339.242188 C 255.789062 339.023438 257.273438 338.496094 258.648438 337.660156 C 260.019531 336.828125 261.171875 335.75 262.097656 334.4375 C 263.023438 335.75 264.171875 336.828125 265.546875 337.660156 C 266.917969 338.496094 268.402344 339.023438 269.996094 339.242188 C 271.554688 339.453125 273.078125 339.304688 274.570312 338.804688 C 276.058594 338.304688 277.363281 337.5 278.476562 336.390625 C 283 331.867188 280.847656 324.453125 277.628906 319.476562 C 274.019531 314.160156 269.609375 309.625 264.398438 305.871094 C 263.679688 305.320312 263.113281 304.890625 262.75 304.566406 C 262.5625 304.402344 262.347656 304.320312 262.101562 304.320312 C 261.851562 304.320312 261.636719 304.402344 261.449219 304.566406 C 261.09375 304.882812 260.507812 305.339844 259.769531 305.917969 C 256.429688 308.527344 250.214844 313.382812 246.546875 319.503906 Z M 246.546875 319.503906 " fill-opacity="1" fill-rule="nonzero"/></g></svg>