<svg xmlns="http://www.w3.org/2000/svg" xmlns:xlink="http://www.w3.org/1999/xlink" width="500" zoomAndPan="magnify" viewBox="0 0 375 374.999991" height="500" preserveAspectRatio="xMidYMid meet" version="1.0"><defs><clipPath id="4854f36a39"><path d="M 69 20.664062 L 306 20.664062 L 306 354 L 69 354 Z M 69 20.664062 " clip-rule="nonzero"/></clipPath><clipPath id="618ca86cfd"><path d="M 86.25 20.664062 L 288.75 20.664062 C 298.273438 20.664062 306 28.386719 306 37.914062 L 306 337.085938 C 306 346.613281 298.273438 354.335938 288.75 354.335938 L 86.25 354.335938 C 76.726562 354.335938 69 346.613281 69 337.085938 L 69 37.914062 C 69 28.386719 76.726562 20.664062 86.25 20.664062 Z M 86.25 20.664062 " clip-rule="nonzero"/></clipPath><clipPath id="a36ddbedb4"><path d="M 69 20.671875 L 305.902344 20.671875 L 305.902344 353.734375 L 69 353.734375 Z M 69 20.671875 " clip-rule="nonzero"/></clipPath><clipPath id="f13ae5929b"><path d="M 86.25 20.671875 L 288.726562 20.671875 C 298.253906 20.671875 305.976562 28.394531 305.976562 37.921875 L 305.976562 337.0625 C 305.976562 346.589844 298.253906 354.3125 288.726562 354.3125 L 86.25 354.3125 C 76.722656 354.3125 69 346.589844 69 337.0625 L 69 37.921875 C 69 28.394531 76.722656 20.671875 86.25 20.671875 Z M 86.25 20.671875 " clip-rule="nonzero"/></clipPath><clipPath id="dfbd50e6b5"><path d="M 134 123 L 241 123 L 241 251.777344 L 134 251.777344 Z M 134 123 " clip-rule="nonzero"/></clipPath><clipPath id="ee22354253"><path d="M 84 36.175781 L 118 36.175781 L 118 78 L 84 78 Z M 84 36.175781 " clip-rule="nonzero"/></clipPath><clipPath id="de1b861a25"><path d="M 257 298.097656 L 293 298.097656 L 293 340.316406 L 257 340.316406 Z M 257 298.097656 " clip-rule="nonzero"/></clipPath></defs><g clip-path="url(#4854f36a39)"><g clip-path="url(#618ca86cfd)"><path fill="#d50000" d="M 69 20.664062 L 306 20.664062 L 306 353.941406 L 69 353.941406 Z M 69 20.664062 " fill-opacity="1" fill-rule="nonzero"/></g></g><g clip-path="url(#a36ddbedb4)"><g clip-path="url(#f13ae5929b)"><path stroke-linecap="butt" transform="matrix(2.345548, 0, 0, 2.345548, 69.001867, 20.672992)" fill="none" stroke-linejoin="miter" d="M 7.353562 -0.000476393 L 93.677332 -0.000476393 C 97.739216 -0.000476393 101.03169 3.291998 101.03169 7.353881 L 101.03169 134.889367 C 101.03169 138.951251 97.739216 142.243725 93.677332 142.243725 L 7.353562 142.243725 C 3.291678 142.243725 -0.000796048 138.951251 -0.000796048 134.889367 L -0.000796048 7.353881 C -0.000796048 3.291998 3.291678 -0.000476393 7.353562 -0.000476393 Z M 7.353562 -0.000476393 " stroke="#ffffff" stroke-width="2.558037" stroke-opacity="1" stroke-miterlimit="4"/></g></g><g clip-path="url(#dfbd50e6b5)"><path fill="#ffffff" d="M 228 174.453125 C 205.460938 152.707031 190.640625 129.972656 187.46875 123.445312 C 184.304688 129.972656 169.488281 152.707031 146.945312 174.453125 C 131.921875 190.273438 130.136719 211.027344 143.589844 223.867188 C 156.429688 236.523438 171.851562 227.632812 180.757812 220.707031 C 180.554688 225.253906 178.972656 238.699219 166.519531 251.550781 L 208.824219 251.550781 C 196.167969 238.699219 194.597656 225.050781 194.597656 220.707031 C 203.296875 227.632812 218.710938 236.523438 231.765625 223.867188 C 244.808594 211.027344 243.035156 190.066406 228 174.453125 " fill-opacity="1" fill-rule="nonzero"/></g><g clip-path="url(#ee22354253)"><path fill="#ffffff" d="M 113.953125 52.648438 C 106.765625 45.714844 102.039062 38.46875 101.027344 36.386719 C 100.019531 38.46875 95.296875 45.714844 88.109375 52.648438 C 83.316406 57.695312 82.75 64.3125 87.039062 68.40625 C 91.132812 72.441406 96.050781 69.605469 98.890625 67.398438 C 98.824219 68.847656 98.320312 73.132812 94.347656 77.230469 L 107.839844 77.230469 C 103.800781 73.132812 103.300781 68.78125 103.300781 67.398438 C 106.074219 69.605469 110.988281 72.441406 115.152344 68.40625 C 119.3125 64.3125 118.746094 57.628906 113.953125 52.648438 " fill-opacity="1" fill-rule="nonzero"/></g><g clip-path="url(#de1b861a25)"><path fill="#ffffff" d="M 261.234375 323.242188 C 268.683594 330.425781 273.578125 337.9375 274.625 340.09375 C 275.671875 337.9375 280.566406 330.425781 288.011719 323.242188 C 292.976562 318.015625 293.566406 311.160156 289.121094 306.917969 C 284.878906 302.734375 279.785156 305.671875 276.84375 307.960938 C 276.910156 306.457031 277.433594 302.019531 281.546875 297.773438 L 267.570312 297.773438 C 271.753906 302.019531 272.269531 306.527344 272.269531 307.960938 C 269.394531 305.671875 264.304688 302.734375 259.992188 306.917969 C 255.683594 311.160156 256.269531 318.082031 261.234375 323.242188 " fill-opacity="1" fill-rule="nonzero"/></g></svg>